<?xml version="1.0" encoding="UTF-8"?>
<svg width="17px" height="17px" viewBox="0 0 17 17" version="1.1" xmlns="http://www.w3.org/2000/svg" xmlns:xlink="http://www.w3.org/1999/xlink">
    <!-- Generator: Sketch 60.1 (88133) - https://sketch.com -->
    <title>copyright-icon</title>
    <desc>Created with Sketch.</desc>
    <g id="Page-1" stroke="none" stroke-width="1" fill="none" fill-rule="evenodd">
        <g id="attempt2" transform="translate(-642.000000, -1991.000000)" fill="#6FB0B9">
            <g id="footer" transform="translate(449.000000, 1989.000000)">
                <g id="copyright-icon" transform="translate(193.000000, 2.000000)">
                    <path d="M8.15,0 C12.6511207,0 16.3,3.64887929 16.3,8.15 C16.3,12.6511207 12.6511207,16.3 8.15,16.3 C3.64887929,16.3 0,12.6511207 0,8.15 C0,3.64887929 3.64887929,0 8.15,0 Z M8.15,2 C4.75344879,2 2,4.75344879 2,8.15 C2,11.5465512 4.75344879,14.3 8.15,14.3 C11.5465512,14.3 14.3,11.5465512 14.3,8.15 C14.3,4.75344879 11.5465512,2 8.15,2 Z" id="Combined-Shape"></path>
                    <path d="M8.15,3.7 C10.173853,3.7 11.8821498,5.05105716 12.4221704,6.90045162 L10.4671213,6.90021063 C10.0078428,6.0655699 9.11996938,5.5 8.1,5.5 C6.60883118,5.5 5.4,6.70883118 5.4,8.2 C5.4,9.69116882 6.60883118,10.9 8.1,10.9 C9.1596396,10.9 10.0767081,10.2895805 10.5187477,9.40119935 L12.421876,9.40055617 C11.8815291,11.2494336 10.1734854,12.6 8.15,12.6 C5.69233286,12.6 3.7,10.6076671 3.7,8.15 C3.7,5.69233286 5.69233286,3.7 8.15,3.7 Z" id="Combined-Shape"></path>
                </g>
            </g>
        </g>
    </g>
</svg>